<svg width="264" height="386" viewBox="0 0 264 386" fill="none" xmlns="http://www.w3.org/2000/svg">
<mask id="mask0_432_5022" style="mask-type:alpha" maskUnits="userSpaceOnUse" x="0" y="0" width="264" height="386">
<rect width="264" height="386" fill="#D9D9D9"/>
</mask>
<g mask="url(#mask0_432_5022)">
<path opacity="0.2" d="M219.454 100.017L90.3466 325.606C68.9708 362.956 29.2313 386 -13.803 386L-384.654 386C-424.407 386 -461.581 366.312 -483.918 333.428L-567.264 210.73C-580.776 190.839 -588 167.347 -588 143.301L-588 -265C-588 -331.274 -534.274 -385 -468 -385L-177.18 -385C-144.454 -385 -113.148 -371.634 -90.5131 -347.999L201.972 -42.5878C238.755 -4.17844 245.87 53.86 219.454 100.017Z" fill="url(#paint0_linear_432_5022)"/>
</g>
<defs>
<linearGradient id="paint0_linear_432_5022" x1="-38.3462" y1="-411.067" x2="-505.491" y2="-20.3557" gradientUnits="userSpaceOnUse">
<stop stop-color="#272727"/>
<stop offset="1" stop-color="#FFE01B"/>
</linearGradient>
</defs>
</svg>
