<svg width="16" height="16" viewBox="0 0 16 16" fill="none" xmlns="http://www.w3.org/2000/svg">
<path d="M4.46571 3.74754L3.06853 5.54872C1.9493 6.99157 1.9493 9.00923 3.06853 10.4521L4.46571 12.2533C5.22338 13.23 6.39011 13.8016 7.62629 13.8016H8.61489C9.903 13.8016 11.1123 13.1813 11.8637 12.135L13.1574 10.3339C14.159 8.93942 14.159 7.06137 13.1574 5.66693L11.8637 3.86576C11.1123 2.81954 9.903 2.19922 8.61489 2.19922H7.62629C6.39011 2.19922 5.22339 2.77078 4.46571 3.74754Z" stroke="#FCFCFC" stroke-linecap="round" stroke-linejoin="round"/>
<path d="M3.66675 8H12.3334" stroke="#FCFCFC" stroke-linecap="round"/>
<path d="M5.83325 11.7529L10.1666 4.24738" stroke="#FCFCFC" stroke-linecap="round"/>
<path d="M5.83325 4.24707L10.1666 11.7526" stroke="#FCFCFC" stroke-linecap="round"/>
</svg>
