<svg width="24" height="24" viewBox="0 0 24 24" fill="none" xmlns="http://www.w3.org/2000/svg">
<path fill-rule="evenodd" clip-rule="evenodd" d="M11.9999 20C8.83151 20 6.12479 19.5282 6.12479 17.6392C6.12479 15.7503 8.8139 14.1058 11.9999 14.1058C15.1684 14.1058 17.8751 15.7349 17.8751 17.6229C17.8751 19.5109 15.186 20 11.9999 20Z" stroke="#272727" stroke-width="1.5" stroke-linecap="round" stroke-linejoin="round"/>
<path fill-rule="evenodd" clip-rule="evenodd" d="M11.9997 11.4125C14.0793 11.4125 15.7658 9.75359 15.7658 7.70671C15.7658 5.65984 14.0793 4 11.9997 4C9.91998 4 8.23354 5.65984 8.23354 7.70671C8.22767 9.74589 9.90041 11.4057 11.9733 11.4125H11.9997Z" stroke="#272727" stroke-width="1.5" stroke-linecap="round" stroke-linejoin="round"/>
<path d="M18.2501 10.3947C19.4601 10.076 20.3522 8.98995 20.3522 7.69693C20.3522 6.34808 19.3809 5.22162 18.0877 4.96167" stroke="#272727" stroke-width="1.5" stroke-linecap="round" stroke-linejoin="round"/>
<path d="M18.8186 13.4302C20.5344 13.4302 21.9998 14.5749 21.9998 15.5974C21.9998 16.1991 21.4941 16.8548 20.7271 17.0319" stroke="#272727" stroke-width="1.5" stroke-linecap="round" stroke-linejoin="round"/>
<path d="M5.75041 10.3947C4.53938 10.076 3.64725 8.98995 3.64725 7.69693C3.64725 6.34808 4.61959 5.22162 5.91182 4.96167" stroke="#272727" stroke-width="1.5" stroke-linecap="round" stroke-linejoin="round"/>
<path d="M5.18094 13.4302C3.46515 13.4302 1.99979 14.5749 1.99979 15.5974C1.99979 16.1991 2.50552 16.8548 3.27342 17.0319" stroke="#272727" stroke-width="1.5" stroke-linecap="round" stroke-linejoin="round"/>
</svg>
