<svg width="16" height="16" viewBox="0 0 16 16" fill="none" xmlns="http://www.w3.org/2000/svg">
<path fill-rule="evenodd" clip-rule="evenodd" d="M8 6C9.1047 6 10 6.8953 10 8C10 9.1047 9.1047 10 8 10C6.8953 10 6 9.1047 6 8C6 6.8953 6.8953 6 8 6Z" stroke="#FCFCFC" stroke-linecap="round" stroke-linejoin="round"/>
<path fill-rule="evenodd" clip-rule="evenodd" d="M13.7656 4.66651V4.66651C13.2831 3.82985 12.215 3.54356 11.3801 4.02671C10.654 4.44608 9.7464 3.92135 9.7464 3.0819C9.7464 2.1163 8.96415 1.33301 7.99983 1.33301V1.33301C7.03552 1.33301 6.25327 2.1163 6.25327 3.0819C6.25327 3.92135 5.34572 4.44608 4.62023 4.02671C3.78468 3.54356 2.71652 3.82985 2.23402 4.66651C1.75221 5.50318 2.03811 6.57276 2.87367 7.05522C3.59915 7.47528 3.59915 8.52407 2.87367 8.94413C2.03811 9.42728 1.75221 10.4969 2.23402 11.3328C2.71652 12.1695 3.78468 12.4558 4.61954 11.9733H4.62023C5.34572 11.5533 6.25327 12.078 6.25327 12.9174V12.9174C6.25327 13.883 7.03552 14.6663 7.99983 14.6663V14.6663C8.96415 14.6663 9.7464 13.883 9.7464 12.9174V12.9174C9.7464 12.078 10.654 11.5533 11.3801 11.9733C12.215 12.4558 13.2831 12.1695 13.7656 11.3328C14.2482 10.4969 13.9616 9.42728 13.1267 8.94413H13.126C12.4005 8.52407 12.4005 7.47528 13.1267 7.05522C13.9616 6.57276 14.2482 5.50318 13.7656 4.66651Z" stroke="#FCFCFC" stroke-linecap="round" stroke-linejoin="round"/>
</svg>
