<svg width="16" height="16" viewBox="0 0 16 16" fill="none" xmlns="http://www.w3.org/2000/svg">
<path d="M4.4458 10.0148L6.53085 7.31455L8.90919 9.17537L10.9497 6.55078" stroke="#272727" stroke-linecap="round" stroke-linejoin="round"/>
<path fill-rule="evenodd" clip-rule="evenodd" d="M13.3277 1.33301C14.0676 1.33301 14.6667 1.93014 14.6667 2.66752C14.6667 3.40421 14.0676 4.00204 13.3277 4.00204C12.5879 4.00204 11.9888 3.40421 11.9888 2.66752C11.9888 1.93014 12.5879 1.33301 13.3277 1.33301Z" stroke="#272727" stroke-linecap="round" stroke-linejoin="round"/>
<path d="M14.086 6.13728C14.1786 6.75871 14.2211 7.4586 14.2211 8.2439C14.2211 13.0612 12.6105 14.6665 7.7772 14.6665C2.94459 14.6665 1.33325 13.0612 1.33325 8.2439C1.33325 3.42729 2.94459 1.82129 7.7772 1.82129C8.55047 1.82129 9.24085 1.86225 9.85528 1.95113" stroke="#272727" stroke-linecap="round" stroke-linejoin="round"/>
</svg>
