<svg width="16" height="16" viewBox="0 0 16 16" fill="none" xmlns="http://www.w3.org/2000/svg">
<path fill-rule="evenodd" clip-rule="evenodd" d="M8.00003 13.3332C5.88773 13.3332 4.08325 13.0187 4.08325 11.7594C4.08325 10.5001 5.87599 9.40381 8.00003 9.40381C10.1123 9.40381 11.9168 10.4898 11.9168 11.7485C11.9168 13.0072 10.1241 13.3332 8.00003 13.3332Z" stroke="#272727" stroke-linecap="round" stroke-linejoin="round"/>
<path fill-rule="evenodd" clip-rule="evenodd" d="M7.99978 7.60815C9.38623 7.60815 10.5105 6.50223 10.5105 5.13765C10.5105 3.77306 9.38623 2.6665 7.99978 2.6665C6.61332 2.6665 5.48902 3.77306 5.48902 5.13765C5.48511 6.49709 6.60028 7.60365 7.98217 7.60815H7.99978Z" stroke="#272727" stroke-linecap="round" stroke-linejoin="round"/>
<path d="M12.1668 6.9296C12.9736 6.71715 13.5683 5.99314 13.5683 5.13113C13.5683 4.23189 12.9207 3.48092 12.0586 3.30762" stroke="#272727" stroke-linecap="round" stroke-linejoin="round"/>
<path d="M12.5459 8.95312C13.6898 8.95312 14.6667 9.71629 14.6667 10.3979C14.6667 10.7991 14.3295 11.2362 13.8182 11.3543" stroke="#272727" stroke-linecap="round" stroke-linejoin="round"/>
<path d="M3.83375 6.9296C3.0264 6.71715 2.43164 5.99314 2.43164 5.13113C2.43164 4.23189 3.07987 3.48092 3.94135 3.30762" stroke="#272727" stroke-linecap="round" stroke-linejoin="round"/>
<path d="M3.45402 8.95312C2.31016 8.95312 1.33325 9.71629 1.33325 10.3979C1.33325 10.7991 1.67041 11.2362 2.18234 11.3543" stroke="#272727" stroke-linecap="round" stroke-linejoin="round"/>
</svg>
