<svg width="25" height="24" viewBox="0 0 25 24" fill="none" xmlns="http://www.w3.org/2000/svg">
<path fill-rule="evenodd" clip-rule="evenodd" d="M2.5 14C2.5 7.99956 5 6 12.5 6C20 6 22.5 7.99956 22.5 14C22.5 19.9996 20 22 12.5 22C5 22 2.5 19.9996 2.5 14Z" fill="#EDFEFE" stroke="#005BD4" stroke-width="1.5" stroke-linecap="round" stroke-linejoin="round"/>
<path d="M5.5 11L7.65001 13.1308C8.21182 13.6876 8.97081 14 9.76179 14H15.4981C16.3585 14 17.1775 13.6306 17.747 12.9855L19.5 11" stroke="#005BD4" stroke-width="1.5" stroke-linecap="round" stroke-linejoin="round"/>
<path d="M16.5 6L15.5527 3.80927C15.0777 2.71102 13.9956 2 12.7991 2L12.086 2C10.8387 2 9.7215 2.77175 9.28009 3.93832L8.5 6" stroke="#005BD4" stroke-width="1.5" stroke-linecap="round" stroke-linejoin="round"/>
</svg>
